<svg id="Capa_1" data-name="Capa 1" xmlns="http://www.w3.org/2000/svg" viewBox="0 0 457 234.95"><defs><style>.cls-1,.cls-4,.cls-5{fill:#211915;}.cls-1,.cls-2,.cls-4,.cls-5{stroke:#211915;}.cls-1,.cls-2,.cls-3,.cls-4,.cls-5{stroke-miterlimit:10;}.cls-1,.cls-3{stroke-width:4px;}.cls-3{fill:#fff;stroke:#fff;}.cls-4{stroke-width:5px;}</style></defs><path class="cls-1" d="M212.11,166.47c0,39.81-31,71-70.5,71s-70.5-31.19-70.5-71,31-71,70.5-71S212.11,126.65,212.11,166.47Z" transform="translate(0 -19.04)"/><path d="M21.69,119.79,138.59,50l123.22,70a14.13,14.13,0,0,0,7.06,1.88A14.34,14.34,0,0,0,276,95L145.48,20.91a14.32,14.32,0,0,0-14.43.16L7,95.17a14.34,14.34,0,1,0,14.7,24.62Z" transform="translate(0 -19.04)"/><path d="M140.38,254m0-169.67M111.79,128" transform="translate(0 -19.04)"/><path class="cls-2" d="M181,121.82" transform="translate(0 -19.04)"/><path class="cls-2" d="M104,121.82" transform="translate(0 -19.04)"/><text y="-19.04"/><path class="cls-3" d="M125.23,188.71a26.43,26.43,0,0,0,14,4.23c8,0,12.69-4.51,12.69-11.05,0-6-3.24-9.51-11.43-12.88-9.9-3.75-16-9.22-16-18.35,0-10.1,7.83-17.59,19.62-17.59,6.21,0,10.71,1.54,13.41,3.17l-2.16,6.82A23,23,0,0,0,143.86,140c-8.28,0-11.43,5.28-11.43,9.7,0,6.06,3.69,9,12.06,12.5,10.26,4.23,15.48,9.51,15.48,19,0,10-6.93,18.64-21.24,18.64-5.85,0-12.24-1.82-15.48-4.13Z" transform="translate(0 -19.04)"/><path class="cls-4" d="M63.28,41.6,66,39.88l2.69-1.71-.12-8.29H42.14l.07,22.25q5.2-2.49,10.53-5.15T63.28,41.6Z" transform="translate(0 -19.04)"/><line class="cls-5" x1="40.25" y1="36.76" x2="71.11" y2="20.6"/></svg>